# xmcd
#
# Track frame offsets:
#   150
#   13532
#   30864
#   41697
#   59078
#   71206
#   85933
#   96473
#   107529
#   120897
#   141280
#   158549
#   170141
#   185042
#   196954
#   206930
#   222458
#   237923
#   255851
#   280288
#   294513
#   307059
#
# Disc length: 4311 seconds
#
# Revision: 0
# Processed by: cddbd v1.5.2PL0 Copyright (c) Steve Scherf et al.
# Submitted via: uFREEDB ActiveX Control 1.5
#
DISCID=4a10d516
DTITLE=Varios - Viajando ao passado
DYEAR=2000
DGENRE=Blues
TTITLE0=Fatalidade - Diana
TTITLE1=Você não me ensinou a te esquecer - Fernando Mende
TTITLE2=Ritmo da chuva - Demetrius
TTITLE3=Meu primeiro amor - José Augusto
TTITLE4=Dominique - Giane
TTITLE5=Minha primeira desilusão - Silvinha
TTITLE6=Resolvi não lhe deixar - José Roberto
TTITLE7=Os verdes campos de minha terra - Agnaldo Timóteo
TTITLE8=Benzinho - José Roberto
TTITLE9=Rida gigante - Fernando Mendes
TTITLE10=Se amar é viver - Altieres Barbiero
TTITLE11=O bilhetinho - Erasmo Carlos
TTITLE12=Minha mão minha heroina - Lindomar Castilho
TTITLE13=Eu te amo mesmo assim - Martinha
TTITLE14=Oh! Carol - Carlos Gonsaga
TTITLE15=A noiva - Agnaldo Timóteo
TTITLE16=Eu não tenho culpa de gostar de você - Gilberto  R
TTITLE17=Qualquer jeito - Kátia
TTITLE18=Sentada a beira do caminho - Erasmo Carlos e Rober
TTITLE19=Ainda queima a esperança - Diana
TTITLE20=Sou louca por você - Elizabete
TTITLE21=Perto dos olhos, longe do coração - Dori Edson
EXTD=Discografia independente
EXTT0=
EXTT1=
EXTT2=
EXTT3=
EXTT4=
EXTT5=
EXTT6=
EXTT7=
EXTT8=
EXTT9=
EXTT10=
EXTT11=
EXTT12=
EXTT13=
EXTT14=
EXTT15=
EXTT16=
EXTT17=
EXTT18=
EXTT19=
EXTT20=
EXTT21=
PLAYORDER=
